<svg width="287" height="147" viewBox="0 0 287 147" fill="none" xmlns="http://www.w3.org/2000/svg">
<rect x="1.5" y="33.5" width="257" height="77" fill="#69DB7C" stroke="black" stroke-width="3"/>
<path d="M136.688 52.9414C137.818 52.9414 138.592 53.069 139.012 53.3242C139.431 53.5794 139.641 54.026 139.641 54.6641V64.0703C139.641 64.6901 139.358 65.1367 138.793 65.4102C138.246 65.6654 137.326 65.793 136.031 65.793C135.174 65.793 134.509 65.7383 134.035 65.6289C133.579 65.5013 133.26 65.319 133.078 65.082C132.896 64.8451 132.805 64.5078 132.805 64.0703C132.805 62.5026 132.331 61.2904 131.383 60.4336C130.435 59.5768 128.995 59.1484 127.062 59.1484C124.529 59.1484 122.605 60.0599 121.293 61.8828C119.98 63.7057 119.324 66.3307 119.324 69.7578C119.324 73.1484 120.017 75.7734 121.402 77.6328C122.806 79.474 124.784 80.3945 127.336 80.3945C129.359 80.3945 131.273 80.1211 133.078 79.5742V75.0078H127.801C127.363 75.0078 127.026 74.9349 126.789 74.7891C126.552 74.6432 126.37 74.3698 126.242 73.9688C126.133 73.5677 126.078 72.9844 126.078 72.2188C126.078 71.4531 126.133 70.8698 126.242 70.4688C126.37 70.0677 126.552 69.7943 126.789 69.6484C127.026 69.4844 127.363 69.4023 127.801 69.4023H140.762C141.199 69.4023 141.536 69.4844 141.773 69.6484C142.01 69.7943 142.184 70.0677 142.293 70.4688C142.421 70.8698 142.484 71.4531 142.484 72.2188C142.484 72.9844 142.421 73.5677 142.293 73.9688C142.184 74.3698 142.01 74.6432 141.773 74.7891C141.536 74.9349 141.199 75.0078 140.762 75.0078H139.914V82.0898C139.914 82.5273 139.823 82.9102 139.641 83.2383C139.477 83.5664 139.24 83.8125 138.93 83.9766C137.234 84.8516 135.375 85.5078 133.352 85.9453C131.328 86.3828 129.232 86.6016 127.062 86.6016C124.073 86.6016 121.439 85.918 119.16 84.5508C116.882 83.1836 115.113 81.2331 113.855 78.6992C112.616 76.1471 111.996 73.1667 111.996 69.7578C111.996 66.3672 112.607 63.4049 113.828 60.8711C115.049 58.319 116.736 56.3594 118.887 54.9922C121.056 53.625 123.508 52.9414 126.242 52.9414C129.451 52.9414 131.82 54.0169 133.352 56.168V54.6641C133.352 54.0443 133.616 53.6068 134.145 53.3516C134.673 53.0781 135.521 52.9414 136.688 52.9414ZM161.352 53.543C165.198 53.543 168.151 54.3906 170.211 56.0859C172.271 57.7812 173.301 60.2422 173.301 63.4688C173.301 67.6797 171.04 70.332 166.52 71.4258C167.504 71.8086 168.288 72.3737 168.871 73.1211C169.254 73.6133 169.6 74.1328 169.91 74.6797C170.238 75.2083 170.612 75.8828 171.031 76.7031C171.469 77.5781 171.806 78.207 172.043 78.5898C172.408 79.1914 172.772 79.6471 173.137 79.957C173.501 80.2487 173.911 80.3945 174.367 80.3945H174.887C175.324 80.3945 175.661 80.4766 175.898 80.6406C176.135 80.7865 176.309 81.0599 176.418 81.4609C176.546 81.862 176.609 82.4453 176.609 83.2109C176.609 83.9766 176.546 84.5599 176.418 84.9609C176.309 85.362 176.135 85.6354 175.898 85.7812C175.661 85.9271 175.324 86 174.887 86H172.234C170.794 86 169.628 85.7083 168.734 85.125C167.841 84.5417 167.021 83.5664 166.273 82.1992C165.909 81.5612 165.471 80.6862 164.961 79.5742C164.596 78.7357 164.25 78.0156 163.922 77.4141C163.594 76.7943 163.229 76.1927 162.828 75.6094C162.263 74.8255 161.634 74.2604 160.941 73.9141C160.249 73.5677 159.419 73.3945 158.453 73.3945H156.703V80.3945H159.355C159.793 80.3945 160.13 80.4766 160.367 80.6406C160.604 80.7865 160.777 81.0599 160.887 81.4609C161.014 81.862 161.078 82.4453 161.078 83.2109C161.078 83.9766 161.014 84.5599 160.887 84.9609C160.777 85.362 160.604 85.6354 160.367 85.7812C160.13 85.9271 159.793 86 159.355 86H146.941C146.504 86 146.167 85.9271 145.93 85.7812C145.693 85.6354 145.51 85.362 145.383 84.9609C145.273 84.5599 145.219 83.9766 145.219 83.2109C145.219 82.4453 145.273 81.862 145.383 81.4609C145.51 81.0599 145.693 80.7865 145.93 80.6406C146.167 80.4766 146.504 80.3945 146.941 80.3945H149.867V59.1484H146.941C146.504 59.1484 146.167 59.0755 145.93 58.9297C145.693 58.7839 145.51 58.5104 145.383 58.1094C145.273 57.7083 145.219 57.125 145.219 56.3594C145.219 55.5938 145.273 55.0104 145.383 54.6094C145.51 54.2083 145.693 53.9349 145.93 53.7891C146.167 53.625 146.504 53.543 146.941 53.543H161.352ZM156.703 67.5156H160.777C162.637 67.5156 164.013 67.1875 164.906 66.5312C165.799 65.8568 166.246 64.8359 166.246 63.4688C166.246 62.1016 165.799 61.0898 164.906 60.4336C164.013 59.7591 162.637 59.4219 160.777 59.4219H156.703V67.5156ZM203.816 53.543C204.254 53.543 204.591 53.625 204.828 53.7891C205.065 53.9349 205.238 54.2083 205.348 54.6094C205.475 55.0104 205.539 55.5938 205.539 56.3594C205.539 57.125 205.475 57.7083 205.348 58.1094C205.238 58.5104 205.065 58.7839 204.828 58.9297C204.591 59.0755 204.254 59.1484 203.816 59.1484H197.363V80.3945H204.363C204.801 80.3945 205.138 80.4766 205.375 80.6406C205.612 80.7865 205.785 81.0599 205.895 81.4609C206.022 81.862 206.086 82.4453 206.086 83.2109C206.086 83.9766 206.022 84.5599 205.895 84.9609C205.785 85.362 205.612 85.6354 205.375 85.7812C205.138 85.9271 204.801 86 204.363 86H183.527C183.09 86 182.753 85.9271 182.516 85.7812C182.279 85.6354 182.096 85.362 181.969 84.9609C181.859 84.5599 181.805 83.9766 181.805 83.2109C181.805 82.4453 181.859 81.862 181.969 81.4609C182.096 81.0599 182.279 80.7865 182.516 80.6406C182.753 80.4766 183.09 80.3945 183.527 80.3945H190.527V59.1484H184.074C183.637 59.1484 183.299 59.0755 183.062 58.9297C182.826 58.7839 182.643 58.5104 182.516 58.1094C182.406 57.7083 182.352 57.125 182.352 56.3594C182.352 55.5938 182.406 55.0104 182.516 54.6094C182.643 54.2083 182.826 53.9349 183.062 53.7891C183.299 53.625 183.637 53.543 184.074 53.543H203.816ZM226.977 53.543C230.167 53.543 232.91 54.1719 235.207 55.4297C237.504 56.6875 239.263 58.5378 240.484 60.9805C241.706 63.4049 242.316 66.3307 242.316 69.7578C242.316 73.1849 241.706 76.1198 240.484 78.5625C239.263 80.987 237.504 82.8372 235.207 84.1133C232.91 85.3711 230.167 86 226.977 86H214.098C213.66 86 213.323 85.9271 213.086 85.7812C212.849 85.6354 212.667 85.362 212.539 84.9609C212.43 84.5599 212.375 83.9766 212.375 83.2109C212.375 82.4453 212.43 81.862 212.539 81.4609C212.667 81.0599 212.849 80.7865 213.086 80.6406C213.323 80.4766 213.66 80.3945 214.098 80.3945H216.75V59.1484H214.098C213.66 59.1484 213.323 59.0755 213.086 58.9297C212.849 58.7839 212.667 58.5104 212.539 58.1094C212.43 57.7083 212.375 57.125 212.375 56.3594C212.375 55.5938 212.43 55.0104 212.539 54.6094C212.667 54.2083 212.849 53.9349 213.086 53.7891C213.323 53.625 213.66 53.543 214.098 53.543H226.977ZM223.586 80.1211H226.43C229.255 80.1211 231.388 79.2461 232.828 77.4961C234.268 75.7279 234.988 73.1484 234.988 69.7578C234.988 66.3672 234.268 63.7969 232.828 62.0469C231.388 60.2969 229.255 59.4219 226.43 59.4219H223.586V80.1211Z" fill="black"/>
<mask id="path-3-outside-1_135_46" maskUnits="userSpaceOnUse" x="14" y="61" width="82" height="43" fill="black">
<rect fill="white" x="14" y="61" width="82" height="43"/>
<path d="M41.4434 93.9941C41.9121 93.9941 42.2734 94.082 42.5273 94.2578C42.7812 94.4141 42.9668 94.707 43.084 95.1367C43.2207 95.5664 43.2891 96.1914 43.2891 97.0117C43.2891 97.832 43.2207 98.457 43.084 98.8867C42.9668 99.3164 42.7812 99.6094 42.5273 99.7656C42.2734 99.9219 41.9121 100 41.4434 100H19.998C19.5293 100 19.168 99.9219 18.9141 99.7656C18.6602 99.6094 18.4648 99.3164 18.3281 98.8867C18.2109 98.457 18.1523 97.832 18.1523 97.0117C18.1523 96.1914 18.2109 95.5664 18.3281 95.1367C18.4648 94.707 18.6602 94.4141 18.9141 94.2578C19.168 94.082 19.5293 93.9941 19.998 93.9941H27.2051V74.248L21.082 77.7344C20.7305 77.9297 20.418 78.0273 20.1445 78.0273C19.7734 78.0273 19.4121 77.8516 19.0605 77.5C18.7285 77.1484 18.3867 76.5918 18.0352 75.8301C17.6445 74.9707 17.4492 74.2578 17.4492 73.6914C17.4492 73.2812 17.5371 72.9395 17.7129 72.666C17.9082 72.3926 18.2012 72.1484 18.5918 71.9336L30.9551 64.9609C31.502 64.6484 32.0586 64.4922 32.625 64.4922C33.1914 64.4922 33.6504 64.6484 34.002 64.9609C34.3535 65.2734 34.5293 65.7422 34.5293 66.3672V93.9941H41.4434ZM53.9648 89.1602C55.6641 89.1602 56.8945 89.3066 57.6562 89.5996C58.418 89.873 58.7988 90.3418 58.7988 91.0059V98.4473C58.7988 99.1113 58.418 99.5898 57.6562 99.8828C56.8945 100.156 55.6641 100.293 53.9648 100.293C52.2656 100.293 51.0352 100.156 50.2734 99.8828C49.5117 99.5898 49.1309 99.1113 49.1309 98.4473V91.0059C49.1309 90.3418 49.5117 89.873 50.2734 89.5996C51.0352 89.3066 52.2656 89.1602 53.9648 89.1602ZM77.9414 64.5801C80.8125 64.5801 83.3125 65.3516 85.4414 66.8945C87.5703 68.418 89.2012 70.5469 90.334 73.2812C91.4668 75.9961 92.0332 79.1113 92.0332 82.627C92.0332 86.1426 91.4668 89.2676 90.334 92.002C89.2012 94.7168 87.5703 96.8359 85.4414 98.3594C83.3125 99.8828 80.8125 100.645 77.9414 100.645C75.0703 100.645 72.5703 99.8828 70.4414 98.3594C68.3125 96.8359 66.6816 94.7168 65.5488 92.002C64.416 89.2676 63.8496 86.1426 63.8496 82.627C63.8496 79.1113 64.416 75.9961 65.5488 73.2812C66.6816 70.5469 68.3125 68.418 70.4414 66.8945C72.5703 65.3516 75.0703 64.5801 77.9414 64.5801ZM77.9414 71.2305C75.9102 71.2305 74.3574 72.1973 73.2832 74.1309C72.2285 76.0449 71.7012 78.877 71.7012 82.627C71.7012 86.377 72.2285 89.209 73.2832 91.123C74.3574 93.0371 75.9102 93.9941 77.9414 93.9941C79.9727 93.9941 81.5156 93.0371 82.5703 91.123C83.6445 89.209 84.1816 86.377 84.1816 82.627C84.1816 78.877 83.6445 76.0449 82.5703 74.1309C81.5156 72.1973 79.9727 71.2305 77.9414 71.2305Z"/>
</mask>
<path d="M41.4434 93.9941C41.9121 93.9941 42.2734 94.082 42.5273 94.2578C42.7812 94.4141 42.9668 94.707 43.084 95.1367C43.2207 95.5664 43.2891 96.1914 43.2891 97.0117C43.2891 97.832 43.2207 98.457 43.084 98.8867C42.9668 99.3164 42.7812 99.6094 42.5273 99.7656C42.2734 99.9219 41.9121 100 41.4434 100H19.998C19.5293 100 19.168 99.9219 18.9141 99.7656C18.6602 99.6094 18.4648 99.3164 18.3281 98.8867C18.2109 98.457 18.1523 97.832 18.1523 97.0117C18.1523 96.1914 18.2109 95.5664 18.3281 95.1367C18.4648 94.707 18.6602 94.4141 18.9141 94.2578C19.168 94.082 19.5293 93.9941 19.998 93.9941H27.2051V74.248L21.082 77.7344C20.7305 77.9297 20.418 78.0273 20.1445 78.0273C19.7734 78.0273 19.4121 77.8516 19.0605 77.5C18.7285 77.1484 18.3867 76.5918 18.0352 75.8301C17.6445 74.9707 17.4492 74.2578 17.4492 73.6914C17.4492 73.2812 17.5371 72.9395 17.7129 72.666C17.9082 72.3926 18.2012 72.1484 18.5918 71.9336L30.9551 64.9609C31.502 64.6484 32.0586 64.4922 32.625 64.4922C33.1914 64.4922 33.6504 64.6484 34.002 64.9609C34.3535 65.2734 34.5293 65.7422 34.5293 66.3672V93.9941H41.4434ZM53.9648 89.1602C55.6641 89.1602 56.8945 89.3066 57.6562 89.5996C58.418 89.873 58.7988 90.3418 58.7988 91.0059V98.4473C58.7988 99.1113 58.418 99.5898 57.6562 99.8828C56.8945 100.156 55.6641 100.293 53.9648 100.293C52.2656 100.293 51.0352 100.156 50.2734 99.8828C49.5117 99.5898 49.1309 99.1113 49.1309 98.4473V91.0059C49.1309 90.3418 49.5117 89.873 50.2734 89.5996C51.0352 89.3066 52.2656 89.1602 53.9648 89.1602ZM77.9414 64.5801C80.8125 64.5801 83.3125 65.3516 85.4414 66.8945C87.5703 68.418 89.2012 70.5469 90.334 73.2812C91.4668 75.9961 92.0332 79.1113 92.0332 82.627C92.0332 86.1426 91.4668 89.2676 90.334 92.002C89.2012 94.7168 87.5703 96.8359 85.4414 98.3594C83.3125 99.8828 80.8125 100.645 77.9414 100.645C75.0703 100.645 72.5703 99.8828 70.4414 98.3594C68.3125 96.8359 66.6816 94.7168 65.5488 92.002C64.416 89.2676 63.8496 86.1426 63.8496 82.627C63.8496 79.1113 64.416 75.9961 65.5488 73.2812C66.6816 70.5469 68.3125 68.418 70.4414 66.8945C72.5703 65.3516 75.0703 64.5801 77.9414 64.5801ZM77.9414 71.2305C75.9102 71.2305 74.3574 72.1973 73.2832 74.1309C72.2285 76.0449 71.7012 78.877 71.7012 82.627C71.7012 86.377 72.2285 89.209 73.2832 91.123C74.3574 93.0371 75.9102 93.9941 77.9414 93.9941C79.9727 93.9941 81.5156 93.0371 82.5703 91.123C83.6445 89.209 84.1816 86.377 84.1816 82.627C84.1816 78.877 83.6445 76.0449 82.5703 74.1309C81.5156 72.1973 79.9727 71.2305 77.9414 71.2305Z" fill="#FF80BF"/>
<path d="M42.5273 94.2578L40.8197 96.7244L40.8862 96.7704L40.9551 96.8128L42.5273 94.2578ZM43.084 95.1367L40.1897 95.9261L40.2062 95.9866L40.2252 96.0463L43.084 95.1367ZM43.084 98.8867L40.2252 97.9771L40.2062 98.0369L40.1897 98.0974L43.084 98.8867ZM18.3281 98.8867L15.4338 99.6761L15.4503 99.7366L15.4693 99.7963L18.3281 98.8867ZM18.3281 95.1367L15.4693 94.2271L15.4503 94.2869L15.4338 94.3474L18.3281 95.1367ZM18.9141 94.2578L20.4864 96.8128L20.5552 96.7704L20.6217 96.7244L18.9141 94.2578ZM27.2051 93.9941V96.9941H30.2051V93.9941H27.2051ZM27.2051 74.248H30.2051V69.0877L25.7207 71.641L27.2051 74.248ZM21.082 77.7344L22.539 80.3568L22.5527 80.3492L22.5664 80.3414L21.082 77.7344ZM19.0605 77.5L16.8795 79.5599L16.9089 79.591L16.9392 79.6213L19.0605 77.5ZM18.0352 75.8301L15.3041 77.0715L15.3076 77.0794L15.3113 77.0873L18.0352 75.8301ZM17.7129 72.666L15.2717 70.9223L15.229 70.982L15.1894 71.0437L17.7129 72.666ZM18.5918 71.9336L20.0376 74.5622L20.0516 74.5545L20.0655 74.5467L18.5918 71.9336ZM30.9551 64.9609L32.4288 67.574L32.4362 67.5699L32.4435 67.5657L30.9551 64.9609ZM34.5293 93.9941H31.5293V96.9941H34.5293V93.9941ZM41.4434 93.9941V96.9941C41.4977 96.9941 41.4593 97 41.3569 96.9751C41.2511 96.9493 41.0501 96.8839 40.8197 96.7244L42.5273 94.2578L44.235 91.7912C43.2811 91.1309 42.226 90.9941 41.4434 90.9941V93.9941ZM42.5273 94.2578L40.9551 96.8128C40.6345 96.6155 40.4342 96.3763 40.3225 96.1999C40.2683 96.1144 40.2351 96.0443 40.2163 95.9992C40.1974 95.9542 40.1902 95.9279 40.1897 95.9261L43.084 95.1367L45.9783 94.3474C45.7577 93.5385 45.2601 92.4169 44.0996 91.7028L42.5273 94.2578ZM43.084 95.1367L40.2252 96.0463C40.2147 96.0135 40.2353 96.0684 40.2556 96.2539C40.275 96.4313 40.2891 96.6797 40.2891 97.0117H43.2891H46.2891C46.2891 96.0917 46.2204 95.0995 45.9428 94.2271L43.084 95.1367ZM43.2891 97.0117H40.2891C40.2891 97.3437 40.275 97.5922 40.2556 97.7695C40.2353 97.9551 40.2147 98.01 40.2252 97.9771L43.084 98.8867L45.9428 99.7963C46.2204 98.9239 46.2891 97.9318 46.2891 97.0117H43.2891ZM43.084 98.8867L40.1897 98.0974C40.1902 98.0956 40.1974 98.0692 40.2163 98.0242C40.2351 97.9792 40.2683 97.909 40.3225 97.8236C40.4342 97.6471 40.6345 97.4079 40.9551 97.2107L42.5273 99.7656L44.0996 102.321C45.2601 101.606 45.7577 100.485 45.9783 99.6761L43.084 98.8867ZM42.5273 99.7656L40.9551 97.2107C41.1772 97.074 41.3573 97.0253 41.4319 97.0092C41.5063 96.9931 41.5184 97 41.4434 97V100V103C42.177 103 43.1751 102.89 44.0996 102.321L42.5273 99.7656ZM41.4434 100V97H19.998V100V103H41.4434V100ZM19.998 100V97C19.923 97 19.9351 96.9931 20.0095 97.0092C20.0841 97.0253 20.2642 97.074 20.4864 97.2107L18.9141 99.7656L17.3418 102.321C18.2663 102.89 19.2644 103 19.998 103V100ZM18.9141 99.7656L20.4864 97.2107C21.091 97.5827 21.2134 98.0603 21.1869 97.9771L18.3281 98.8867L15.4693 99.7963C15.7163 100.573 16.2293 101.636 17.3418 102.321L18.9141 99.7656ZM18.3281 98.8867L21.2224 98.0974C21.2235 98.1015 21.2023 98.0199 21.1832 97.8157C21.1648 97.6194 21.1523 97.3549 21.1523 97.0117H18.1523H15.1523C15.1523 97.915 15.2106 98.8577 15.4338 99.6761L18.3281 98.8867ZM18.1523 97.0117H21.1523C21.1523 96.6685 21.1648 96.404 21.1832 96.2078C21.2023 96.0036 21.2235 95.922 21.2224 95.9261L18.3281 95.1367L15.4338 94.3474C15.2106 95.1658 15.1523 96.1084 15.1523 97.0117H18.1523ZM18.3281 95.1367L21.1869 96.0463C21.2134 95.9631 21.091 96.4407 20.4864 96.8128L18.9141 94.2578L17.3418 91.7028C16.2293 92.3874 15.7163 93.4509 15.4693 94.2271L18.3281 95.1367ZM18.9141 94.2578L20.6217 96.7244C20.3913 96.8839 20.1903 96.9493 20.0845 96.9751C19.9821 97 19.9437 96.9941 19.998 96.9941V93.9941V90.9941C19.2154 90.9941 18.1603 91.1309 17.2064 91.7912L18.9141 94.2578ZM19.998 93.9941V96.9941H27.2051V93.9941V90.9941H19.998V93.9941ZM27.2051 93.9941H30.2051V74.248H27.2051H24.2051V93.9941H27.2051ZM27.2051 74.248L25.7207 71.641L19.5976 75.1273L21.082 77.7344L22.5664 80.3414L28.6895 76.8551L27.2051 74.248ZM21.082 77.7344L19.6251 75.1119C19.5892 75.1319 19.6121 75.1147 19.6892 75.0907C19.7673 75.0663 19.9248 75.0273 20.1445 75.0273V78.0273V81.0273C21.1122 81.0273 21.9368 80.6914 22.539 80.3568L21.082 77.7344ZM20.1445 78.0273V75.0273C20.4505 75.0273 20.7138 75.1035 20.9076 75.1978C21.0882 75.2857 21.1757 75.3725 21.1819 75.3787L19.0605 77.5L16.9392 79.6213C17.6562 80.3383 18.7367 81.0273 20.1445 81.0273V78.0273ZM19.0605 77.5L21.2416 75.4401C21.2567 75.4561 21.2095 75.4084 21.1117 75.2491C21.0172 75.0951 20.8984 74.8748 20.759 74.5729L18.0352 75.8301L15.3113 77.0873C15.7145 77.9608 16.2184 78.8599 16.8795 79.5599L19.0605 77.5ZM18.0352 75.8301L20.7663 74.5887C20.6198 74.2664 20.535 74.0257 20.4891 73.8582C20.442 73.6862 20.4492 73.6397 20.4492 73.6914H17.4492H14.4492C14.4492 74.8797 14.8392 76.0489 15.3041 77.0715L18.0352 75.8301ZM17.4492 73.6914H20.4492C20.4492 73.7067 20.4439 73.9656 20.2364 74.2883L17.7129 72.666L15.1894 71.0437C14.6303 71.9133 14.4492 72.8558 14.4492 73.6914H17.4492ZM17.7129 72.666L20.1541 74.4097C20.0844 74.5073 20.024 74.5622 19.9997 74.5825C19.9764 74.6019 19.9831 74.5922 20.0376 74.5622L18.5918 71.9336L17.146 69.3049C16.4844 69.6688 15.7992 70.1838 15.2717 70.9223L17.7129 72.666ZM18.5918 71.9336L20.0655 74.5467L32.4288 67.574L30.9551 64.9609L29.4814 62.3479L17.1181 69.3205L18.5918 71.9336ZM30.9551 64.9609L32.4435 67.5657C32.5224 67.5206 32.5719 67.5038 32.5935 67.4977C32.6134 67.4921 32.6216 67.4922 32.625 67.4922V64.4922V61.4922C31.4798 61.4922 30.4149 61.8144 29.4667 62.3562L30.9551 64.9609ZM32.625 64.4922V67.4922C32.6334 67.4922 32.5564 67.4933 32.4273 67.4493C32.2901 67.4026 32.1412 67.3208 32.0089 67.2032L34.002 64.9609L35.995 62.7187C34.987 61.8226 33.7686 61.4922 32.625 61.4922V64.4922ZM34.002 64.9609L32.0089 67.2032C31.7967 67.0146 31.6605 66.7924 31.5885 66.6002C31.523 66.4258 31.5293 66.3285 31.5293 66.3672H34.5293H37.5293C37.5293 65.1822 37.1798 63.7718 35.995 62.7187L34.002 64.9609ZM34.5293 66.3672H31.5293V93.9941H34.5293H37.5293V66.3672H34.5293ZM34.5293 93.9941V96.9941H41.4434V93.9941V90.9941H34.5293V93.9941ZM57.6562 89.5996L56.5793 92.3996L56.6109 92.4118L56.6427 92.4232L57.6562 89.5996ZM57.6562 99.8828L58.6698 102.706L58.7016 102.695L58.7332 102.683L57.6562 99.8828ZM50.2734 99.8828L49.1965 102.683L49.228 102.695L49.2598 102.706L50.2734 99.8828ZM50.2734 89.5996L51.287 92.4232L51.3188 92.4118L51.3504 92.3996L50.2734 89.5996ZM53.9648 89.1602V92.1602C55.6069 92.1602 56.365 92.3172 56.5793 92.3996L57.6562 89.5996L58.7332 86.7996C57.4241 86.2961 55.7212 86.1602 53.9648 86.1602V89.1602ZM57.6562 89.5996L56.6427 92.4232C56.6782 92.4359 56.4378 92.3593 56.1848 92.048C55.8968 91.6935 55.7988 91.2897 55.7988 91.0059H58.7988H61.7988C61.7988 90.0579 61.5104 89.0877 60.8415 88.2645C60.2077 87.4844 59.396 87.0367 58.6698 86.776L57.6562 89.5996ZM58.7988 91.0059H55.7988V98.4473H58.7988H61.7988V91.0059H58.7988ZM58.7988 98.4473H55.7988C55.7988 98.1628 55.8966 97.7744 56.1659 97.436C56.4017 97.1397 56.6228 97.0661 56.5793 97.0828L57.6562 99.8828L58.7332 102.683C59.4514 102.407 60.2438 101.947 60.8605 101.172C61.5107 100.356 61.7988 99.3958 61.7988 98.4473H58.7988ZM57.6562 99.8828L56.6427 97.0592C56.3999 97.1464 55.6131 97.293 53.9648 97.293V100.293V103.293C55.715 103.293 57.3892 103.166 58.6698 102.706L57.6562 99.8828ZM53.9648 100.293V97.293C52.3166 97.293 51.5298 97.1464 51.287 97.0592L50.2734 99.8828L49.2598 102.706C50.5405 103.166 52.2147 103.293 53.9648 103.293V100.293ZM50.2734 99.8828L51.3504 97.0828C51.3069 97.0661 51.528 97.1397 51.7638 97.436C52.0331 97.7744 52.1309 98.1628 52.1309 98.4473H49.1309H46.1309C46.1309 99.3958 46.419 100.356 47.0692 101.172C47.6859 101.947 48.4783 102.407 49.1965 102.683L50.2734 99.8828ZM49.1309 98.4473H52.1309V91.0059H49.1309H46.1309V98.4473H49.1309ZM49.1309 91.0059H52.1309C52.1309 91.2897 52.0329 91.6935 51.7448 92.048C51.4919 92.3593 51.2515 92.4359 51.287 92.4232L50.2734 89.5996L49.2598 86.776C48.5336 87.0367 47.722 87.4844 47.0882 88.2645C46.4193 89.0877 46.1309 90.0579 46.1309 91.0059H49.1309ZM50.2734 89.5996L51.3504 92.3996C51.5647 92.3172 52.3228 92.1602 53.9648 92.1602V89.1602V86.1602C52.2085 86.1602 50.5056 86.2961 49.1965 86.7996L50.2734 89.5996ZM85.4414 66.8945L83.6809 69.3236L83.6882 69.3289L83.6956 69.3342L85.4414 66.8945ZM90.334 73.2812L87.5624 74.4295L87.5653 74.4365L90.334 73.2812ZM90.334 92.002L93.1026 93.1572L93.1056 93.1502L90.334 92.002ZM65.5488 92.002L62.7773 93.1502L62.7802 93.1572L65.5488 92.002ZM65.5488 73.2812L68.3175 74.4365L68.3204 74.4295L65.5488 73.2812ZM70.4414 66.8945L72.1872 69.3342L72.1946 69.3289L72.2019 69.3236L70.4414 66.8945ZM73.2832 74.1309L70.6607 72.6739L70.6557 72.683L73.2832 74.1309ZM73.2832 91.123L70.6557 92.5709L70.6613 92.5811L70.6671 92.5913L73.2832 91.123ZM82.5703 91.123L79.9542 89.6548L79.9484 89.665L79.9428 89.6752L82.5703 91.123ZM82.5703 74.1309L79.9366 75.5674L79.9453 75.5833L79.9542 75.5991L82.5703 74.1309ZM77.9414 64.5801V67.5801C80.2414 67.5801 82.1115 68.1862 83.6809 69.3236L85.4414 66.8945L87.2019 64.4654C84.5135 62.517 81.3836 61.5801 77.9414 61.5801V64.5801ZM85.4414 66.8945L83.6956 69.3342C85.3112 70.4903 86.6154 72.1436 87.5624 74.4295L90.334 73.2812L93.1056 72.133C91.7869 68.9502 89.8295 66.3456 87.1872 64.4548L85.4414 66.8945ZM90.334 73.2812L87.5653 74.4365C88.5187 76.7213 89.0332 79.4321 89.0332 82.627H92.0332H95.0332C95.0332 78.7906 94.4149 75.2709 93.1026 72.126L90.334 73.2812ZM92.0332 82.627H89.0332C89.0332 85.8212 88.5189 88.545 87.5624 90.8537L90.334 92.002L93.1056 93.1502C94.4147 89.9902 95.0332 86.464 95.0332 82.627H92.0332ZM90.334 92.002L87.5653 90.8467C86.6201 93.1121 85.3163 94.7599 83.6956 95.9197L85.4414 98.3594L87.1872 100.799C89.8243 98.912 91.7823 96.3215 93.1026 93.1572L90.334 92.002ZM85.4414 98.3594L83.6956 95.9197C82.1253 97.0434 80.25 97.6445 77.9414 97.6445V100.645V103.645C81.375 103.645 84.4997 102.722 87.1872 100.799L85.4414 98.3594ZM77.9414 100.645V97.6445C75.6328 97.6445 73.7575 97.0434 72.1872 95.9197L70.4414 98.3594L68.6956 100.799C71.3831 102.722 74.5078 103.645 77.9414 103.645V100.645ZM70.4414 98.3594L72.1872 95.9197C70.5665 94.7599 69.2627 93.1121 68.3175 90.8467L65.5488 92.002L62.7802 93.1572C64.1005 96.3215 66.0585 98.912 68.6956 100.799L70.4414 98.3594ZM65.5488 92.002L68.3204 90.8537C67.3639 88.545 66.8496 85.8212 66.8496 82.627H63.8496H60.8496C60.8496 86.464 61.4681 89.9902 62.7773 93.1502L65.5488 92.002ZM63.8496 82.627H66.8496C66.8496 79.4321 67.3641 76.7213 68.3175 74.4365L65.5488 73.2812L62.7802 72.126C61.4679 75.2709 60.8496 78.7906 60.8496 82.627H63.8496ZM65.5488 73.2812L68.3204 74.4295C69.2674 72.1436 70.5716 70.4903 72.1872 69.3342L70.4414 66.8945L68.6956 64.4548C66.0534 66.3456 64.0959 68.9502 62.7773 72.133L65.5488 73.2812ZM70.4414 66.8945L72.2019 69.3236C73.7714 68.1862 75.6414 67.5801 77.9414 67.5801V64.5801V61.5801C74.4992 61.5801 71.3693 62.517 68.6809 64.4654L70.4414 66.8945ZM77.9414 71.2305V68.2305C74.7069 68.2305 72.2064 69.8917 70.6607 72.6739L73.2832 74.1309L75.9057 75.5878C76.5084 74.5028 77.1134 74.2305 77.9414 74.2305V71.2305ZM73.2832 74.1309L70.6557 72.683C69.2395 75.2531 68.7012 78.6869 68.7012 82.627H71.7012H74.7012C74.7012 79.067 75.2175 76.8368 75.9107 75.5787L73.2832 74.1309ZM71.7012 82.627H68.7012C68.7012 86.567 69.2395 90.0008 70.6557 92.5709L73.2832 91.123L75.9107 89.6752C75.2175 88.4172 74.7012 86.1869 74.7012 82.627H71.7012ZM73.2832 91.123L70.6671 92.5913C72.2198 95.358 74.7223 96.9941 77.9414 96.9941V93.9941V90.9941C77.098 90.9941 76.495 90.7162 75.8994 89.6548L73.2832 91.123ZM77.9414 93.9941V96.9941C79.4475 96.9941 80.9022 96.6329 82.2034 95.8258C83.4934 95.0257 84.4725 93.8872 85.1978 92.5709L82.5703 91.123L79.9428 89.6752C79.6134 90.273 79.2937 90.57 79.0408 90.7269C78.799 90.8769 78.4665 90.9941 77.9414 90.9941V93.9941ZM82.5703 91.123L85.1865 92.5913C86.6324 90.0149 87.1816 86.5722 87.1816 82.627H84.1816H81.1816C81.1816 86.1817 80.6567 88.403 79.9542 89.6548L82.5703 91.123ZM84.1816 82.627H87.1816C87.1816 78.6817 86.6324 75.239 85.1865 72.6626L82.5703 74.1309L79.9542 75.5991C80.6567 76.8509 81.1816 79.0722 81.1816 82.627H84.1816ZM82.5703 74.1309L85.204 72.6943C84.4817 71.3701 83.5052 70.2219 82.215 69.4134C80.9122 68.5971 79.4533 68.2305 77.9414 68.2305V71.2305V74.2305C78.4607 74.2305 78.789 74.3472 79.0292 74.4978C79.2819 74.6561 79.6042 74.958 79.9366 75.5674L82.5703 74.1309Z" fill="black" mask="url(#path-3-outside-1_135_46)"/>
<rect x="12" width="98" height="50" fill="#F9FCFF"/>
<rect x="61" width="58" height="32" fill="#F9FCFF"/>
<rect x="50" y="45" width="27" height="10" fill="#F9FCFF"/>
<rect x="83" y="45" width="27" height="10" fill="#F9FCFF"/>
<rect x="87" y="32" width="27" height="10" fill="#F9FCFF"/>
<path d="M34.7891 19.9414C37.7786 19.9414 40.4128 20.625 42.6914 21.9922C44.9701 23.3411 46.7292 25.2917 47.9688 27.8438C49.2266 30.3776 49.8555 33.349 49.8555 36.7578C49.8555 40.1667 49.2266 43.1471 47.9688 45.6992C46.7292 48.2331 44.9701 50.1836 42.6914 51.5508C40.4128 52.918 37.7786 53.6016 34.7891 53.6016C31.7995 53.6016 29.1654 52.918 26.8867 51.5508C24.6081 50.1836 22.8398 48.2331 21.582 45.6992C20.3424 43.1471 19.7227 40.1667 19.7227 36.7578C19.7227 33.349 20.3424 30.3776 21.582 27.8438C22.8398 25.2917 24.6081 23.3411 26.8867 21.9922C29.1654 20.625 31.7995 19.9414 34.7891 19.9414ZM34.7891 26.1484C32.2552 26.1484 30.332 27.0599 29.0195 28.8828C27.707 30.7057 27.0508 33.3307 27.0508 36.7578C27.0508 40.1849 27.707 42.819 29.0195 44.6602C30.332 46.4831 32.2552 47.3945 34.7891 47.3945C37.3229 47.3945 39.2461 46.4831 40.5586 44.6602C41.8711 42.819 42.5273 40.1849 42.5273 36.7578C42.5273 33.3307 41.8711 30.7057 40.5586 28.8828C39.2461 27.0599 37.3229 26.1484 34.7891 26.1484Z" fill="#F9FCFF"/>
<path d="M34.7891 17.9414C37.7786 17.9414 40.4128 18.625 42.6914 19.9922C44.9701 21.3411 46.7292 23.2917 47.9688 25.8438C49.2266 28.3776 49.8555 31.349 49.8555 34.7578C49.8555 38.1667 49.2266 41.1471 47.9688 43.6992C46.7292 46.2331 44.9701 48.1836 42.6914 49.5508C40.4128 50.918 37.7786 51.6016 34.7891 51.6016C31.7995 51.6016 29.1654 50.918 26.8867 49.5508C24.6081 48.1836 22.8398 46.2331 21.582 43.6992C20.3424 41.1471 19.7227 38.1667 19.7227 34.7578C19.7227 31.349 20.3424 28.3776 21.582 25.8438C22.8398 23.2917 24.6081 21.3411 26.8867 19.9922C29.1654 18.625 31.7995 17.9414 34.7891 17.9414ZM34.7891 24.1484C32.2552 24.1484 30.332 25.0599 29.0195 26.8828C27.707 28.7057 27.0508 31.3307 27.0508 34.7578C27.0508 38.1849 27.707 40.819 29.0195 42.6602C30.332 44.4831 32.2552 45.3945 34.7891 45.3945C37.3229 45.3945 39.2461 44.4831 40.5586 42.6602C41.8711 40.819 42.5273 38.1849 42.5273 34.7578C42.5273 31.3307 41.8711 28.7057 40.5586 26.8828C39.2461 25.0599 37.3229 24.1484 34.7891 24.1484ZM80.4258 18.543C81.0638 18.543 81.5195 18.6797 81.793 18.9531C82.0664 19.2266 82.2031 19.6823 82.2031 20.3203V28.5781C82.2031 29.1979 81.9388 29.6445 81.4102 29.918C80.8815 30.1732 80.0339 30.3008 78.8672 30.3008C77.737 30.3008 76.9622 30.1732 76.543 29.918C76.1237 29.6628 75.9141 29.2161 75.9141 28.5781V24.4219H65.25V32.7617H73.5625C74.2005 32.7617 74.6471 32.9714 74.9023 33.3906C75.1576 33.8099 75.2852 34.5846 75.2852 35.7148C75.2852 36.8451 75.1576 37.6198 74.9023 38.0391C74.6471 38.4401 74.2005 38.6406 73.5625 38.6406H65.25V45.3945H71.1836C71.6211 45.3945 71.9583 45.4766 72.1953 45.6406C72.4323 45.7865 72.6055 46.0599 72.7148 46.4609C72.8424 46.862 72.9062 47.4453 72.9062 48.2109C72.9062 48.9766 72.8424 49.5599 72.7148 49.9609C72.6055 50.362 72.4323 50.6354 72.1953 50.7812C71.9583 50.9271 71.6211 51 71.1836 51H54.9414C54.5039 51 54.1667 50.9271 53.9297 50.7812C53.6927 50.6354 53.5104 50.362 53.3828 49.9609C53.2734 49.5599 53.2188 48.9766 53.2188 48.2109C53.2188 47.4453 53.2734 46.862 53.3828 46.4609C53.5104 46.0599 53.6927 45.7865 53.9297 45.6406C54.1667 45.4766 54.5039 45.3945 54.9414 45.3945H58.4141V24.1484H54.9414C54.5039 24.1484 54.1667 24.0755 53.9297 23.9297C53.6927 23.7839 53.5104 23.5104 53.3828 23.1094C53.2734 22.7083 53.2188 22.125 53.2188 21.3594C53.2188 20.5938 53.2734 20.0104 53.3828 19.6094C53.5104 19.2083 53.6927 18.9349 53.9297 18.7891C54.1667 18.625 54.5039 18.543 54.9414 18.543H80.4258ZM114.004 18.543C114.642 18.543 115.098 18.6797 115.371 18.9531C115.645 19.2266 115.781 19.6823 115.781 20.3203V28.5781C115.781 29.1979 115.517 29.6445 114.988 29.918C114.46 30.1732 113.612 30.3008 112.445 30.3008C111.315 30.3008 110.54 30.1732 110.121 29.918C109.702 29.6628 109.492 29.2161 109.492 28.5781V24.4219H98.8281V32.7617H107.141C107.779 32.7617 108.225 32.9714 108.48 33.3906C108.736 33.8099 108.863 34.5846 108.863 35.7148C108.863 36.8451 108.736 37.6198 108.48 38.0391C108.225 38.4401 107.779 38.6406 107.141 38.6406H98.8281V45.3945H104.762C105.199 45.3945 105.536 45.4766 105.773 45.6406C106.01 45.7865 106.184 46.0599 106.293 46.4609C106.421 46.862 106.484 47.4453 106.484 48.2109C106.484 48.9766 106.421 49.5599 106.293 49.9609C106.184 50.362 106.01 50.6354 105.773 50.7812C105.536 50.9271 105.199 51 104.762 51H88.5195C88.082 51 87.7448 50.9271 87.5078 50.7812C87.2708 50.6354 87.0885 50.362 86.9609 49.9609C86.8516 49.5599 86.7969 48.9766 86.7969 48.2109C86.7969 47.4453 86.8516 46.862 86.9609 46.4609C87.0885 46.0599 87.2708 45.7865 87.5078 45.6406C87.7448 45.4766 88.082 45.3945 88.5195 45.3945H91.9922V24.1484H88.5195C88.082 24.1484 87.7448 24.0755 87.5078 23.9297C87.2708 23.7839 87.0885 23.5104 86.9609 23.1094C86.8516 22.7083 86.7969 22.125 86.7969 21.3594C86.7969 20.5938 86.8516 20.0104 86.9609 19.6094C87.0885 19.2083 87.2708 18.9349 87.5078 18.7891C87.7448 18.625 88.082 18.543 88.5195 18.543H114.004Z" fill="black"/>
<line x1="13.5" x2="13.5" y2="51" stroke="black" stroke-width="3"/>
<line x1="120.5" x2="120.5" y2="32" stroke="black" stroke-width="3"/>
<line x1="13" y1="1.5" x2="120" y2="1.5" stroke="black" stroke-width="3"/>
<rect x="93.5" y="99.5" width="180" height="31" fill="#FACC15" stroke="black" stroke-width="3"/>
<path d="M124.789 108.832C125.273 108.832 125.605 108.887 125.785 108.996C125.965 109.105 126.055 109.297 126.055 109.57V114.07C126.055 114.336 125.934 114.527 125.691 114.645C125.457 114.754 125.062 114.809 124.508 114.809C124.141 114.809 123.855 114.785 123.652 114.738C123.457 114.684 123.32 114.605 123.242 114.504C123.164 114.402 123.125 114.258 123.125 114.07C123.125 113.289 122.91 112.664 122.48 112.195C122.059 111.727 121.453 111.492 120.664 111.492C119.578 111.492 118.754 111.883 118.191 112.664C117.629 113.445 117.348 114.57 117.348 116.039C117.348 117.492 117.645 118.617 118.238 119.414C118.84 120.203 119.688 120.598 120.781 120.598C121.461 120.598 122.113 120.508 122.738 120.328C123.363 120.141 124.043 119.859 124.777 119.484C124.902 119.422 125.02 119.391 125.129 119.391C125.496 119.391 125.801 119.715 126.043 120.363C126.152 120.66 126.207 120.926 126.207 121.16C126.207 121.559 126.027 121.844 125.668 122.016C123.996 122.844 122.328 123.258 120.664 123.258C119.383 123.258 118.254 122.965 117.277 122.379C116.301 121.793 115.543 120.957 115.004 119.871C114.473 118.777 114.207 117.5 114.207 116.039C114.207 114.586 114.469 113.316 114.992 112.23C115.516 111.137 116.238 110.297 117.16 109.711C118.09 109.125 119.141 108.832 120.312 108.832C121.68 108.832 122.695 109.324 123.359 110.309V109.57C123.359 109.305 123.473 109.117 123.699 109.008C123.926 108.891 124.289 108.832 124.789 108.832ZM134.586 111.914C135.773 111.914 136.812 112.156 137.703 112.641C138.594 113.125 139.277 113.797 139.754 114.656C140.238 115.516 140.48 116.492 140.48 117.586C140.48 118.68 140.238 119.656 139.754 120.516C139.277 121.375 138.594 122.047 137.703 122.531C136.812 123.016 135.773 123.258 134.586 123.258C133.398 123.258 132.359 123.016 131.469 122.531C130.578 122.047 129.891 121.375 129.406 120.516C128.93 119.656 128.691 118.68 128.691 117.586C128.691 116.492 128.93 115.516 129.406 114.656C129.891 113.797 130.578 113.125 131.469 112.641C132.359 112.156 133.398 111.914 134.586 111.914ZM134.586 114.574C134.023 114.574 133.535 114.699 133.121 114.949C132.707 115.191 132.387 115.539 132.16 115.992C131.941 116.445 131.832 116.977 131.832 117.586C131.832 118.195 131.941 118.727 132.16 119.18C132.387 119.633 132.707 119.984 133.121 120.234C133.535 120.477 134.023 120.598 134.586 120.598C135.148 120.598 135.637 120.477 136.051 120.234C136.465 119.984 136.781 119.633 137 119.18C137.227 118.727 137.34 118.195 137.34 117.586C137.34 116.977 137.227 116.445 137 115.992C136.781 115.539 136.465 115.191 136.051 114.949C135.637 114.699 135.148 114.574 134.586 114.574ZM153.242 107.625C153.508 107.625 153.695 107.684 153.805 107.801C153.922 107.91 153.98 108.098 153.98 108.363V120.598H155C155.188 120.598 155.332 120.629 155.434 120.691C155.535 120.754 155.609 120.871 155.656 121.043C155.711 121.215 155.738 121.465 155.738 121.793C155.738 122.121 155.711 122.371 155.656 122.543C155.609 122.715 155.535 122.836 155.434 122.906C155.332 122.969 155.188 123 155 123H152.258C151.992 123 151.801 122.945 151.684 122.836C151.574 122.719 151.52 122.527 151.52 122.262V121.277C151.113 121.902 150.605 122.391 149.996 122.742C149.387 123.086 148.711 123.258 147.969 123.258C146.945 123.258 146.051 123.008 145.285 122.508C144.52 122.008 143.934 121.328 143.527 120.469C143.121 119.609 142.918 118.648 142.918 117.586C142.918 116.523 143.121 115.562 143.527 114.703C143.934 113.844 144.52 113.164 145.285 112.664C146.051 112.164 146.945 111.914 147.969 111.914C148.578 111.914 149.145 112.035 149.668 112.277C150.191 112.512 150.652 112.852 151.051 113.297V110.027H149.328C149.141 110.027 148.996 109.996 148.895 109.934C148.793 109.871 148.715 109.754 148.66 109.582C148.613 109.41 148.59 109.16 148.59 108.832C148.59 108.504 148.613 108.254 148.66 108.082C148.715 107.91 148.793 107.793 148.895 107.73C148.996 107.66 149.141 107.625 149.328 107.625H153.242ZM148.438 114.574C147.953 114.574 147.531 114.699 147.172 114.949C146.812 115.191 146.535 115.539 146.34 115.992C146.152 116.445 146.059 116.977 146.059 117.586C146.059 118.195 146.152 118.727 146.34 119.18C146.535 119.633 146.812 119.984 147.172 120.234C147.531 120.477 147.953 120.598 148.438 120.598C148.938 120.598 149.391 120.48 149.797 120.246C150.203 120.012 150.527 119.668 150.77 119.215C151.012 118.754 151.133 118.211 151.133 117.586C151.133 116.961 151.012 116.422 150.77 115.969C150.527 115.508 150.203 115.16 149.797 114.926C149.391 114.691 148.938 114.574 148.438 114.574ZM163.531 111.914C164.719 111.914 165.73 112.172 166.566 112.688C167.402 113.195 168.031 113.906 168.453 114.82C168.883 115.727 169.098 116.766 169.098 117.938C169.098 118.203 169.039 118.391 168.922 118.5C168.812 118.609 168.625 118.664 168.359 118.664H160.836C160.984 119.289 161.301 119.77 161.785 120.105C162.277 120.434 162.898 120.598 163.648 120.598C164.859 120.598 166.172 120.383 167.586 119.953C167.68 119.922 167.773 119.906 167.867 119.906C168.039 119.906 168.188 119.984 168.312 120.141C168.438 120.297 168.551 120.562 168.652 120.938C168.73 121.227 168.77 121.473 168.77 121.676C168.77 121.879 168.723 122.039 168.629 122.156C168.543 122.266 168.398 122.355 168.195 122.426C167.414 122.684 166.617 122.887 165.805 123.035C164.992 123.184 164.195 123.258 163.414 123.258C162.227 123.258 161.203 123.016 160.344 122.531C159.484 122.047 158.828 121.379 158.375 120.527C157.93 119.668 157.707 118.688 157.707 117.586C157.707 116.492 157.941 115.516 158.41 114.656C158.879 113.797 159.555 113.125 160.438 112.641C161.32 112.156 162.352 111.914 163.531 111.914ZM163.531 114.574C162.102 114.574 161.219 115.176 160.883 116.379H166.039C165.906 115.809 165.621 115.367 165.184 115.055C164.754 114.734 164.203 114.574 163.531 114.574ZM177.523 109.09C178.891 109.09 180.066 109.359 181.051 109.898C182.035 110.438 182.789 111.23 183.312 112.277C183.836 113.316 184.098 114.57 184.098 116.039C184.098 117.508 183.836 118.766 183.312 119.812C182.789 120.852 182.035 121.645 181.051 122.191C180.066 122.73 178.891 123 177.523 123H172.004C171.816 123 171.672 122.969 171.57 122.906C171.469 122.844 171.391 122.727 171.336 122.555C171.289 122.383 171.266 122.133 171.266 121.805C171.266 121.477 171.289 121.227 171.336 121.055C171.391 120.883 171.469 120.766 171.57 120.703C171.672 120.633 171.816 120.598 172.004 120.598H173.141V111.492H172.004C171.816 111.492 171.672 111.461 171.57 111.398C171.469 111.336 171.391 111.219 171.336 111.047C171.289 110.875 171.266 110.625 171.266 110.297C171.266 109.969 171.289 109.719 171.336 109.547C171.391 109.375 171.469 109.258 171.57 109.195C171.672 109.125 171.816 109.09 172.004 109.09H177.523ZM176.07 120.48H177.289C178.5 120.48 179.414 120.105 180.031 119.355C180.648 118.598 180.957 117.492 180.957 116.039C180.957 114.586 180.648 113.484 180.031 112.734C179.414 111.984 178.5 111.609 177.289 111.609H176.07V120.48ZM192.312 111.914C193.5 111.914 194.512 112.172 195.348 112.688C196.184 113.195 196.812 113.906 197.234 114.82C197.664 115.727 197.879 116.766 197.879 117.938C197.879 118.203 197.82 118.391 197.703 118.5C197.594 118.609 197.406 118.664 197.141 118.664H189.617C189.766 119.289 190.082 119.77 190.566 120.105C191.059 120.434 191.68 120.598 192.43 120.598C193.641 120.598 194.953 120.383 196.367 119.953C196.461 119.922 196.555 119.906 196.648 119.906C196.82 119.906 196.969 119.984 197.094 120.141C197.219 120.297 197.332 120.562 197.434 120.938C197.512 121.227 197.551 121.473 197.551 121.676C197.551 121.879 197.504 122.039 197.41 122.156C197.324 122.266 197.18 122.355 196.977 122.426C196.195 122.684 195.398 122.887 194.586 123.035C193.773 123.184 192.977 123.258 192.195 123.258C191.008 123.258 189.984 123.016 189.125 122.531C188.266 122.047 187.609 121.379 187.156 120.527C186.711 119.668 186.488 118.688 186.488 117.586C186.488 116.492 186.723 115.516 187.191 114.656C187.66 113.797 188.336 113.125 189.219 112.641C190.102 112.156 191.133 111.914 192.312 111.914ZM192.312 114.574C190.883 114.574 190 115.176 189.664 116.379H194.82C194.688 115.809 194.402 115.367 193.965 115.055C193.535 114.734 192.984 114.574 192.312 114.574ZM210.535 111.914C211.02 111.914 211.352 111.969 211.531 112.078C211.711 112.188 211.801 112.379 211.801 112.652V116.414C211.801 116.68 211.68 116.871 211.438 116.988C211.203 117.098 210.809 117.152 210.254 117.152C209.887 117.152 209.602 117.129 209.398 117.082C209.203 117.027 209.066 116.949 208.988 116.848C208.91 116.746 208.871 116.602 208.871 116.414C208.871 116.086 208.789 115.781 208.625 115.5C208.469 115.219 208.23 114.996 207.91 114.832C207.598 114.66 207.219 114.574 206.773 114.574C206.211 114.574 205.719 114.699 205.297 114.949C204.875 115.191 204.547 115.543 204.312 116.004C204.086 116.457 203.973 116.984 203.973 117.586C203.973 118.188 204.086 118.719 204.312 119.18C204.547 119.633 204.875 119.984 205.297 120.234C205.719 120.477 206.211 120.598 206.773 120.598C207.375 120.598 207.988 120.5 208.613 120.305C209.246 120.109 209.859 119.84 210.453 119.496C210.594 119.418 210.723 119.379 210.84 119.379C211.191 119.379 211.5 119.688 211.766 120.305C211.906 120.641 211.977 120.926 211.977 121.16C211.977 121.512 211.809 121.781 211.473 121.969C210.746 122.375 209.98 122.691 209.176 122.918C208.379 123.145 207.578 123.258 206.773 123.258C205.586 123.258 204.543 123.016 203.645 122.531C202.746 122.047 202.051 121.375 201.559 120.516C201.074 119.656 200.832 118.68 200.832 117.586C200.832 116.492 201.078 115.516 201.57 114.656C202.062 113.789 202.73 113.117 203.574 112.641C204.426 112.156 205.375 111.914 206.422 111.914C207.688 111.914 208.582 112.371 209.105 113.285V112.652C209.105 112.387 209.219 112.199 209.445 112.09C209.672 111.973 210.035 111.914 210.535 111.914ZM220.93 111.914C222.117 111.914 223.156 112.156 224.047 112.641C224.938 113.125 225.621 113.797 226.098 114.656C226.582 115.516 226.824 116.492 226.824 117.586C226.824 118.68 226.582 119.656 226.098 120.516C225.621 121.375 224.938 122.047 224.047 122.531C223.156 123.016 222.117 123.258 220.93 123.258C219.742 123.258 218.703 123.016 217.812 122.531C216.922 122.047 216.234 121.375 215.75 120.516C215.273 119.656 215.035 118.68 215.035 117.586C215.035 116.492 215.273 115.516 215.75 114.656C216.234 113.797 216.922 113.125 217.812 112.641C218.703 112.156 219.742 111.914 220.93 111.914ZM220.93 114.574C220.367 114.574 219.879 114.699 219.465 114.949C219.051 115.191 218.73 115.539 218.504 115.992C218.285 116.445 218.176 116.977 218.176 117.586C218.176 118.195 218.285 118.727 218.504 119.18C218.73 119.633 219.051 119.984 219.465 120.234C219.879 120.477 220.367 120.598 220.93 120.598C221.492 120.598 221.98 120.477 222.395 120.234C222.809 119.984 223.125 119.633 223.344 119.18C223.57 118.727 223.684 118.195 223.684 117.586C223.684 116.977 223.57 116.445 223.344 115.992C223.125 115.539 222.809 115.191 222.395 114.949C221.98 114.699 221.492 114.574 220.93 114.574ZM239.586 107.625C239.852 107.625 240.039 107.684 240.148 107.801C240.266 107.91 240.324 108.098 240.324 108.363V120.598H241.344C241.531 120.598 241.676 120.629 241.777 120.691C241.879 120.754 241.953 120.871 242 121.043C242.055 121.215 242.082 121.465 242.082 121.793C242.082 122.121 242.055 122.371 242 122.543C241.953 122.715 241.879 122.836 241.777 122.906C241.676 122.969 241.531 123 241.344 123H238.602C238.336 123 238.145 122.945 238.027 122.836C237.918 122.719 237.863 122.527 237.863 122.262V121.277C237.457 121.902 236.949 122.391 236.34 122.742C235.73 123.086 235.055 123.258 234.312 123.258C233.289 123.258 232.395 123.008 231.629 122.508C230.863 122.008 230.277 121.328 229.871 120.469C229.465 119.609 229.262 118.648 229.262 117.586C229.262 116.523 229.465 115.562 229.871 114.703C230.277 113.844 230.863 113.164 231.629 112.664C232.395 112.164 233.289 111.914 234.312 111.914C234.922 111.914 235.488 112.035 236.012 112.277C236.535 112.512 236.996 112.852 237.395 113.297V110.027H235.672C235.484 110.027 235.34 109.996 235.238 109.934C235.137 109.871 235.059 109.754 235.004 109.582C234.957 109.41 234.934 109.16 234.934 108.832C234.934 108.504 234.957 108.254 235.004 108.082C235.059 107.91 235.137 107.793 235.238 107.73C235.34 107.66 235.484 107.625 235.672 107.625H239.586ZM234.781 114.574C234.297 114.574 233.875 114.699 233.516 114.949C233.156 115.191 232.879 115.539 232.684 115.992C232.496 116.445 232.402 116.977 232.402 117.586C232.402 118.195 232.496 118.727 232.684 119.18C232.879 119.633 233.156 119.984 233.516 120.234C233.875 120.477 234.297 120.598 234.781 120.598C235.281 120.598 235.734 120.48 236.141 120.246C236.547 120.012 236.871 119.668 237.113 119.215C237.355 118.754 237.477 118.211 237.477 117.586C237.477 116.961 237.355 116.422 237.113 115.969C236.871 115.508 236.547 115.16 236.141 114.926C235.734 114.691 235.281 114.574 234.781 114.574ZM249.875 111.914C251.062 111.914 252.074 112.172 252.91 112.688C253.746 113.195 254.375 113.906 254.797 114.82C255.227 115.727 255.441 116.766 255.441 117.938C255.441 118.203 255.383 118.391 255.266 118.5C255.156 118.609 254.969 118.664 254.703 118.664H247.18C247.328 119.289 247.645 119.77 248.129 120.105C248.621 120.434 249.242 120.598 249.992 120.598C251.203 120.598 252.516 120.383 253.93 119.953C254.023 119.922 254.117 119.906 254.211 119.906C254.383 119.906 254.531 119.984 254.656 120.141C254.781 120.297 254.895 120.562 254.996 120.938C255.074 121.227 255.113 121.473 255.113 121.676C255.113 121.879 255.066 122.039 254.973 122.156C254.887 122.266 254.742 122.355 254.539 122.426C253.758 122.684 252.961 122.887 252.148 123.035C251.336 123.184 250.539 123.258 249.758 123.258C248.57 123.258 247.547 123.016 246.688 122.531C245.828 122.047 245.172 121.379 244.719 120.527C244.273 119.668 244.051 118.688 244.051 117.586C244.051 116.492 244.285 115.516 244.754 114.656C245.223 113.797 245.898 113.125 246.781 112.641C247.664 112.156 248.695 111.914 249.875 111.914ZM249.875 114.574C248.445 114.574 247.562 115.176 247.227 116.379H252.383C252.25 115.809 251.965 115.367 251.527 115.055C251.098 114.734 250.547 114.574 249.875 114.574Z" fill="black"/>
</svg>
